<svg width="70" height="70" viewBox="0 0 70 70" fill="none" xmlns="http://www.w3.org/2000/svg">
<rect x="0.5" y="0.5" width="69" height="69" rx="34.5" fill="white"/>
<path d="M46.4699 20.6853C46.3932 20.1383 45.8877 19.7571 45.3408 19.8338L36.4279 21.0831C35.881 21.1598 35.4997 21.6653 35.5764 22.2122C35.6531 22.7592 36.1586 23.1404 36.7055 23.0637L44.6281 21.9532L45.7386 29.8758C45.8153 30.4227 46.3208 30.8039 46.8677 30.7273C47.4147 30.6506 47.7959 30.1451 47.7192 29.5981L46.4699 20.6853ZM25.3771 49.1418L46.278 21.4262L44.6812 20.222L23.7803 47.9375L25.3771 49.1418Z" fill="#6D6D6D"/>
<rect x="0.5" y="0.5" width="69" height="69" rx="34.5" stroke="#6D6D6D"/>
</svg>
