<svg width="30" height="30" viewBox="0 0 30 30" fill="none" xmlns="http://www.w3.org/2000/svg">
<path d="M12.8856 3.26532C13.915 1.67621 16.0867 1.67621 17.1162 3.26532C17.7836 4.29567 19.0028 4.71694 20.097 4.29535L20.4765 4.14914C22.062 3.53825 23.7086 4.87869 23.6101 6.70005C23.5437 7.92773 24.2953 9.03177 25.3968 9.32472L25.6615 9.39513C27.3014 9.83129 27.9283 11.9996 26.8115 13.3729C26.0625 14.2938 26.0625 15.675 26.8115 16.5959C27.9283 17.9691 27.3014 20.1375 25.6615 20.5736L25.3968 20.644C24.2953 20.937 23.5437 22.041 23.6101 23.2687C23.7086 25.0901 22.062 26.4305 20.4765 25.8196L20.097 25.6734C19.0028 25.2518 17.7836 25.6731 17.1162 26.7034C16.0867 28.2926 13.915 28.2926 12.8856 26.7034C12.2181 25.6731 10.999 25.2518 9.90476 25.6734L9.52522 25.8196C7.93976 26.4305 6.29312 25.0901 6.39159 23.2687C6.45799 22.041 5.70646 20.937 4.60496 20.644L4.34022 20.5736C2.70028 20.1375 2.07341 17.9691 3.19026 16.5959C3.93919 15.675 3.93919 14.2938 3.19026 13.3729C2.07341 11.9996 2.70028 9.83129 4.34022 9.39513L4.60496 9.32472C5.70646 9.03177 6.45799 7.92773 6.39159 6.70005C6.29312 4.87869 7.93976 3.53825 9.52522 4.14914L9.90476 4.29535C10.999 4.71694 12.2181 4.29567 12.8856 3.26532Z" fill="#C192EE"/>
<path d="M15.0005 23.181C19.1752 23.181 22.5595 19.5113 22.5595 14.9844C22.5595 10.4576 19.1752 6.78784 15.0005 6.78784C10.8257 6.78784 7.44141 10.4576 7.44141 14.9844C7.44141 19.5113 10.8257 23.181 15.0005 23.181Z" fill="#B7CBF0" stroke="white" stroke-width="2.24405"/>
</svg>
