<svg width="30" height="30" viewBox="0 0 30 30" fill="none" xmlns="http://www.w3.org/2000/svg">
<path d="M18.4109 2.5H11.5859V7.95H18.4109V2.5Z" fill="white"/>
<path d="M20.2891 2.5V7.95H27.3391C26.7016 4.5125 24.1641 2.5125 20.2891 2.5Z" fill="white"/>
<path d="M2.5 9.82495V20.2375C2.5 24.7875 5.2125 27.5 9.7625 27.5H20.2375C24.7875 27.5 27.5 24.7875 27.5 20.2375V9.82495H2.5ZM18.05 20.225L15.45 21.7249C14.9 22.0374 14.3625 22.2 13.8625 22.2C13.4875 22.2 13.15 22.1124 12.8375 21.9374C12.1125 21.5249 11.7125 20.675 11.7125 19.575V16.575C11.7125 15.475 12.1125 14.625 12.8375 14.2125C13.5625 13.7875 14.4875 13.8625 15.45 14.425L18.05 15.925C19.0125 16.475 19.5375 17.25 19.5375 18.0875C19.5375 18.925 19 19.6625 18.05 20.225Z" fill="white"/>
<path d="M9.71406 2.5C5.83906 2.5125 3.30156 4.5125 2.66406 7.95H9.71406V2.5Z" fill="white"/>
</svg>
