<svg width="30" height="30" viewBox="0 0 30 30" fill="none" xmlns="http://www.w3.org/2000/svg">
<g clip-path="url(#clip0_1786_3233)">
<path d="M16.6175 2.73771e-06C17.0586 2.73771e-06 17.4531 0.274503 17.6016 0.685503L18.6605 3.621C19.0401 3.7155 19.3656 3.81 19.6416 3.909C19.9431 4.017 20.3316 4.1805 20.8116 4.404L23.2775 3.099C23.4788 2.99236 23.7093 2.95387 23.9343 2.9893C24.1593 3.02473 24.3668 3.13217 24.5256 3.2955L26.6946 5.538C26.9826 5.8365 27.0636 6.273 26.9016 6.654L25.7451 9.3645C25.9371 9.717 26.0901 10.0185 26.2071 10.2705C26.3331 10.545 26.4891 10.923 26.6751 11.4105L29.3706 12.5655C29.7756 12.738 30.0261 13.143 29.9991 13.5765L29.8011 16.689C29.7875 16.8912 29.7149 17.085 29.5923 17.2463C29.4696 17.4076 29.3023 17.5294 29.1111 17.5965L26.5581 18.504C26.4846 18.8565 26.4081 19.158 26.3271 19.413C26.1964 19.8068 26.0472 20.1943 25.8801 20.574L27.1626 23.409C27.2531 23.6082 27.2774 23.8311 27.2321 24.0452C27.1867 24.2592 27.0741 24.4531 26.9106 24.5985L24.4715 26.7765C24.3109 26.9193 24.1105 27.0097 23.8971 27.0354C23.6837 27.0611 23.4675 27.0211 23.2775 26.9205L20.7635 25.5885C20.3702 25.7968 19.9645 25.9806 19.5485 26.139L18.4506 26.55L17.4755 29.25C17.4033 29.4477 17.273 29.619 17.1016 29.7413C16.9303 29.8637 16.726 29.9314 16.5156 29.9355L13.6656 30C13.4495 30.0057 13.237 29.9442 13.0573 29.8242C12.8776 29.7041 12.7395 29.5313 12.6621 29.3295L11.5131 26.289C11.121 26.155 10.7329 26.01 10.3491 25.854C10.0351 25.7181 9.72594 25.5715 9.42205 25.4145L6.57205 26.6325C6.38426 26.7126 6.17723 26.7364 5.97616 26.701C5.77509 26.6656 5.58866 26.5725 5.43955 26.433L3.33055 24.4545C3.17353 24.3078 3.0666 24.1155 3.02488 23.9048C2.98315 23.694 3.00875 23.4754 3.09805 23.28L4.32355 20.61C4.16057 20.2938 4.00946 19.9715 3.87055 19.644C3.7084 19.2431 3.55834 18.8374 3.42055 18.4275L0.735551 17.61C0.517302 17.544 0.326943 17.4079 0.194036 17.2226C0.0611289 17.0373 -0.00688695 16.8134 0.000551204 16.5855L0.105551 13.704C0.113025 13.516 0.171756 13.3336 0.275393 13.1766C0.37903 13.0195 0.523629 12.8938 0.693551 12.813L3.51055 11.46C3.64105 10.9815 3.75505 10.6095 3.85555 10.338C3.99706 9.97537 4.15421 9.61904 4.32655 9.27L3.10555 6.69C3.01289 6.49408 2.98475 6.27381 3.02518 6.06088C3.06561 5.84795 3.17253 5.65333 3.33055 5.505L5.43655 3.516C5.58418 3.37676 5.76891 3.28315 5.96849 3.24642C6.16808 3.2097 6.37403 3.23143 6.56155 3.309L9.40855 4.485C9.72355 4.275 10.0086 4.1055 10.2666 3.969C10.5741 3.8055 10.9851 3.6345 11.5026 3.45L12.4926 0.688503C12.5657 0.486405 12.6995 0.311825 12.8756 0.188599C13.0518 0.065374 13.2616 -0.000489376 13.4766 2.73771e-06H16.6175ZM15.0366 10.5285C12.5361 10.5285 10.5096 12.531 10.5096 15.003C10.5096 17.475 12.5361 19.479 15.0366 19.479C17.5356 19.479 19.5621 17.475 19.5621 15.003C19.5621 12.531 17.5371 10.5285 15.0366 10.5285Z" fill="white"/>
</g>
<defs>
<clipPath id="clip0_1786_3233">
<rect width="30" height="30" fill="white"/>
</clipPath>
</defs>
</svg>
