<svg width="30" height="30" viewBox="0 0 30 30" fill="none" xmlns="http://www.w3.org/2000/svg">
<path d="M15 2.5C11.725 2.5 9.0625 5.1625 9.0625 8.4375C9.0625 11.65 11.575 14.25 14.85 14.3625C14.95 14.35 15.05 14.35 15.125 14.3625C15.15 14.3625 15.1625 14.3625 15.1875 14.3625C15.2 14.3625 15.2 14.3625 15.2125 14.3625C18.4125 14.25 20.925 11.65 20.9375 8.4375C20.9375 5.1625 18.275 2.5 15 2.5Z" fill="white"/>
<path d="M21.3492 17.6875C17.8617 15.3625 12.1742 15.3625 8.66172 17.6875C7.07422 18.75 6.19922 20.1875 6.19922 21.725C6.19922 23.2625 7.07422 24.6875 8.64922 25.7375C10.3992 26.9125 12.6992 27.5 14.9992 27.5C17.2992 27.5 19.5992 26.9125 21.3492 25.7375C22.9242 24.675 23.7992 23.25 23.7992 21.7C23.7867 20.1625 22.9242 18.7375 21.3492 17.6875Z" fill="white"/>
</svg>
